<mxfile host="Electron" agent="Mozilla/5.0 (Macintosh; Intel Mac OS X 10_15_7) AppleWebKit/537.36 (KHTML, like Gecko) draw.io/24.7.17 Chrome/128.0.6613.36 Electron/32.0.1 Safari/537.36" version="24.7.17">
  <diagram name="Page-1" id="AGF9NHbUH6Ofzl98z9HV">
    <mxGraphModel dx="3245" dy="2389" grid="1" gridSize="10" guides="1" tooltips="1" connect="1" arrows="1" fold="1" page="1" pageScale="1" pageWidth="827" pageHeight="1169" math="0" shadow="0">
      <root>
        <mxCell id="0" />
        <mxCell id="1" parent="0" />
        <mxCell id="f0mhsGFnPGD-ZUsEIgDA-32" value="" style="rounded=1;whiteSpace=wrap;html=1;dashed=1;dashPattern=12 12;fillColor=default;" parent="1" vertex="1">
          <mxGeometry x="50" y="10" width="1800" height="920" as="geometry" />
        </mxCell>
        <mxCell id="f0mhsGFnPGD-ZUsEIgDA-2" value="" style="shape=image;verticalLabelPosition=bottom;labelBackgroundColor=default;verticalAlign=top;aspect=fixed;imageAspect=0;image=https://blog.ndepend.com/wp-content/uploads/Clean-Architecture-Diagram-Asp-Net.png;" parent="1" vertex="1">
          <mxGeometry x="-920" y="10" width="848" height="823" as="geometry" />
        </mxCell>
        <mxCell id="f0mhsGFnPGD-ZUsEIgDA-4" value="«interface»&lt;br style=&quot;font-size: 16px;&quot;&gt;&lt;b style=&quot;font-size: 16px;&quot;&gt;IActivityApplicationService&lt;/b&gt;" style="html=1;whiteSpace=wrap;fillColor=#d5e8d4;strokeColor=#82b366;fontSize=16;" parent="1" vertex="1">
          <mxGeometry x="1260" y="300" width="210" height="50" as="geometry" />
        </mxCell>
        <mxCell id="f0mhsGFnPGD-ZUsEIgDA-6" style="edgeStyle=orthogonalEdgeStyle;rounded=0;orthogonalLoop=1;jettySize=auto;html=1;entryX=0.5;entryY=1;entryDx=0;entryDy=0;endArrow=block;endFill=0;" parent="1" source="f0mhsGFnPGD-ZUsEIgDA-5" target="f0mhsGFnPGD-ZUsEIgDA-4" edge="1">
          <mxGeometry relative="1" as="geometry" />
        </mxCell>
        <mxCell id="f0mhsGFnPGD-ZUsEIgDA-20" style="edgeStyle=orthogonalEdgeStyle;rounded=0;orthogonalLoop=1;jettySize=auto;html=1;entryX=1;entryY=0.25;entryDx=0;entryDy=0;" parent="1" source="f0mhsGFnPGD-ZUsEIgDA-5" target="f0mhsGFnPGD-ZUsEIgDA-17" edge="1">
          <mxGeometry relative="1" as="geometry">
            <Array as="points" />
          </mxGeometry>
        </mxCell>
        <mxCell id="udiEMu_2V9RWAuFKlMfM-8" style="edgeStyle=orthogonalEdgeStyle;rounded=0;orthogonalLoop=1;jettySize=auto;html=1;entryX=1;entryY=0.75;entryDx=0;entryDy=0;" edge="1" parent="1" source="f0mhsGFnPGD-ZUsEIgDA-5" target="f0mhsGFnPGD-ZUsEIgDA-11">
          <mxGeometry relative="1" as="geometry" />
        </mxCell>
        <mxCell id="udiEMu_2V9RWAuFKlMfM-9" style="edgeStyle=orthogonalEdgeStyle;rounded=0;orthogonalLoop=1;jettySize=auto;html=1;entryX=1;entryY=0.5;entryDx=0;entryDy=0;" edge="1" parent="1" source="f0mhsGFnPGD-ZUsEIgDA-5" target="udiEMu_2V9RWAuFKlMfM-1">
          <mxGeometry relative="1" as="geometry" />
        </mxCell>
        <mxCell id="f0mhsGFnPGD-ZUsEIgDA-5" value="ActivityApplicationService" style="html=1;whiteSpace=wrap;fillColor=#d5e8d4;strokeColor=#82b366;fontStyle=1;fontSize=16;" parent="1" vertex="1">
          <mxGeometry x="1260" y="450" width="210" height="50" as="geometry" />
        </mxCell>
        <mxCell id="f0mhsGFnPGD-ZUsEIgDA-7" value="Literacy&lt;br style=&quot;font-size: 20px;&quot;&gt;Micro-service" style="rounded=0;whiteSpace=wrap;html=1;fontStyle=1;fontSize=20;" parent="1" vertex="1">
          <mxGeometry x="990" y="20" width="190" height="60" as="geometry" />
        </mxCell>
        <mxCell id="f0mhsGFnPGD-ZUsEIgDA-9" value="&lt;b style=&quot;font-size: 16px;&quot;&gt;Activity Domain Entity&lt;/b&gt;" style="html=1;whiteSpace=wrap;fillColor=#ffe6cc;strokeColor=#d79b00;fontSize=16;" parent="1" vertex="1">
          <mxGeometry x="945" y="300" width="210" height="50" as="geometry" />
        </mxCell>
        <mxCell id="f0mhsGFnPGD-ZUsEIgDA-11" value="«interface»&lt;br style=&quot;font-size: 16px;&quot;&gt;&lt;b style=&quot;font-size: 16px;&quot;&gt;IActivityRepositoty&lt;/b&gt;" style="html=1;whiteSpace=wrap;fillColor=#ffe6cc;strokeColor=#d79b00;fontSize=16;" parent="1" vertex="1">
          <mxGeometry x="945" y="396.5" width="210" height="50" as="geometry" />
        </mxCell>
        <mxCell id="f0mhsGFnPGD-ZUsEIgDA-14" style="edgeStyle=orthogonalEdgeStyle;rounded=0;orthogonalLoop=1;jettySize=auto;html=1;entryX=0.75;entryY=1;entryDx=0;entryDy=0;endArrow=block;endFill=0;" parent="1" source="f0mhsGFnPGD-ZUsEIgDA-13" target="f0mhsGFnPGD-ZUsEIgDA-11" edge="1">
          <mxGeometry relative="1" as="geometry">
            <Array as="points">
              <mxPoint x="1195" y="540" />
              <mxPoint x="1103" y="540" />
            </Array>
          </mxGeometry>
        </mxCell>
        <mxCell id="f0mhsGFnPGD-ZUsEIgDA-13" value="ActivityRepository" style="html=1;whiteSpace=wrap;fillColor=#99FFFF;strokeColor=#6c8ebf;fontStyle=1;fontSize=16;" parent="1" vertex="1">
          <mxGeometry x="1090" y="833" width="210" height="50" as="geometry" />
        </mxCell>
        <mxCell id="f0mhsGFnPGD-ZUsEIgDA-38" style="edgeStyle=orthogonalEdgeStyle;rounded=0;orthogonalLoop=1;jettySize=auto;html=1;entryX=1;entryY=0.5;entryDx=0;entryDy=0;" parent="1" source="f0mhsGFnPGD-ZUsEIgDA-15" target="f0mhsGFnPGD-ZUsEIgDA-4" edge="1">
          <mxGeometry relative="1" as="geometry">
            <Array as="points">
              <mxPoint x="1550" y="145" />
              <mxPoint x="1550" y="325" />
            </Array>
          </mxGeometry>
        </mxCell>
        <mxCell id="f0mhsGFnPGD-ZUsEIgDA-15" value="ActivityController" style="html=1;whiteSpace=wrap;fillColor=#dae8fc;strokeColor=#6c8ebf;fontStyle=1;fontSize=16;" parent="1" vertex="1">
          <mxGeometry x="1274" y="120" width="210" height="50" as="geometry" />
        </mxCell>
        <mxCell id="f0mhsGFnPGD-ZUsEIgDA-17" value="«interface»&lt;br style=&quot;font-size: 16px;&quot;&gt;&lt;b style=&quot;font-size: 16px;&quot;&gt;ICourseService&lt;/b&gt;" style="html=1;whiteSpace=wrap;fillColor=#ffe6cc;strokeColor=#d79b00;fontSize=16;" parent="1" vertex="1">
          <mxGeometry x="945" y="560" width="210" height="50" as="geometry" />
        </mxCell>
        <mxCell id="f0mhsGFnPGD-ZUsEIgDA-19" style="edgeStyle=orthogonalEdgeStyle;rounded=0;orthogonalLoop=1;jettySize=auto;html=1;entryX=0.5;entryY=1;entryDx=0;entryDy=0;endArrow=block;endFill=0;" parent="1" source="f0mhsGFnPGD-ZUsEIgDA-18" target="f0mhsGFnPGD-ZUsEIgDA-17" edge="1">
          <mxGeometry relative="1" as="geometry">
            <Array as="points">
              <mxPoint x="1675" y="670" />
              <mxPoint x="1050" y="670" />
            </Array>
          </mxGeometry>
        </mxCell>
        <mxCell id="f0mhsGFnPGD-ZUsEIgDA-18" value="CourseApiClientService" style="html=1;whiteSpace=wrap;fillColor=#99FFFF;strokeColor=#6c8ebf;fontStyle=1;fontSize=16;" parent="1" vertex="1">
          <mxGeometry x="1570" y="833" width="210" height="50" as="geometry" />
        </mxCell>
        <mxCell id="f0mhsGFnPGD-ZUsEIgDA-31" style="edgeStyle=orthogonalEdgeStyle;rounded=0;orthogonalLoop=1;jettySize=auto;html=1;entryX=0.5;entryY=0;entryDx=0;entryDy=0;entryPerimeter=0;" parent="1" source="f0mhsGFnPGD-ZUsEIgDA-18" target="f0mhsGFnPGD-ZUsEIgDA-34" edge="1">
          <mxGeometry relative="1" as="geometry">
            <mxPoint x="1894" y="861" as="targetPoint" />
            <Array as="points">
              <mxPoint x="1910" y="858" />
              <mxPoint x="1910" y="-100" />
              <mxPoint x="2355" y="-100" />
            </Array>
          </mxGeometry>
        </mxCell>
        <mxCell id="f0mhsGFnPGD-ZUsEIgDA-33" value="" style="group;fontSize=20;" parent="1" vertex="1" connectable="0">
          <mxGeometry x="2000" y="10" width="630" height="920" as="geometry" />
        </mxCell>
        <mxCell id="f0mhsGFnPGD-ZUsEIgDA-30" value="" style="rounded=1;whiteSpace=wrap;html=1;dashed=1;dashPattern=12 12;fillColor=default;fontSize=16;" parent="f0mhsGFnPGD-ZUsEIgDA-33" vertex="1">
          <mxGeometry width="630" height="920" as="geometry" />
        </mxCell>
        <mxCell id="f0mhsGFnPGD-ZUsEIgDA-21" value="Course&lt;br style=&quot;font-size: 20px;&quot;&gt;Micro-service" style="rounded=0;whiteSpace=wrap;html=1;fontStyle=1;fontSize=20;" parent="f0mhsGFnPGD-ZUsEIgDA-33" vertex="1">
          <mxGeometry x="80" y="10" width="180" height="60" as="geometry" />
        </mxCell>
        <mxCell id="f0mhsGFnPGD-ZUsEIgDA-39" style="edgeStyle=orthogonalEdgeStyle;rounded=0;orthogonalLoop=1;jettySize=auto;html=1;entryX=1;entryY=0.5;entryDx=0;entryDy=0;fontSize=16;" parent="f0mhsGFnPGD-ZUsEIgDA-33" source="f0mhsGFnPGD-ZUsEIgDA-22" target="f0mhsGFnPGD-ZUsEIgDA-24" edge="1">
          <mxGeometry relative="1" as="geometry">
            <Array as="points">
              <mxPoint x="530" y="135" />
              <mxPoint x="530" y="315" />
            </Array>
          </mxGeometry>
        </mxCell>
        <mxCell id="f0mhsGFnPGD-ZUsEIgDA-22" value="CourseController" style="html=1;whiteSpace=wrap;fillColor=#dae8fc;strokeColor=#6c8ebf;fontStyle=1;fontSize=16;" parent="f0mhsGFnPGD-ZUsEIgDA-33" vertex="1">
          <mxGeometry x="250" y="110" width="210" height="50" as="geometry" />
        </mxCell>
        <mxCell id="f0mhsGFnPGD-ZUsEIgDA-23" value="&lt;b style=&quot;font-size: 16px;&quot;&gt;Course Domain Entity&lt;/b&gt;" style="html=1;whiteSpace=wrap;fillColor=#ffe6cc;strokeColor=#d79b00;fontSize=16;" parent="f0mhsGFnPGD-ZUsEIgDA-33" vertex="1">
          <mxGeometry x="20" y="290" width="210" height="50" as="geometry" />
        </mxCell>
        <mxCell id="f0mhsGFnPGD-ZUsEIgDA-24" value="«interface»&lt;br style=&quot;font-size: 16px;&quot;&gt;&lt;b style=&quot;font-size: 16px;&quot;&gt;ICourseApplicationService&lt;/b&gt;" style="html=1;whiteSpace=wrap;fillColor=#d5e8d4;strokeColor=#82b366;fontSize=16;" parent="f0mhsGFnPGD-ZUsEIgDA-33" vertex="1">
          <mxGeometry x="250" y="290" width="210" height="50" as="geometry" />
        </mxCell>
        <mxCell id="f0mhsGFnPGD-ZUsEIgDA-25" style="edgeStyle=orthogonalEdgeStyle;rounded=0;orthogonalLoop=1;jettySize=auto;html=1;entryX=0.5;entryY=1;entryDx=0;entryDy=0;endArrow=block;endFill=0;fontSize=16;" parent="f0mhsGFnPGD-ZUsEIgDA-33" source="f0mhsGFnPGD-ZUsEIgDA-26" target="f0mhsGFnPGD-ZUsEIgDA-24" edge="1">
          <mxGeometry relative="1" as="geometry" />
        </mxCell>
        <mxCell id="f0mhsGFnPGD-ZUsEIgDA-43" style="edgeStyle=orthogonalEdgeStyle;rounded=0;orthogonalLoop=1;jettySize=auto;html=1;entryX=1;entryY=0.5;entryDx=0;entryDy=0;fontSize=16;" parent="f0mhsGFnPGD-ZUsEIgDA-33" source="f0mhsGFnPGD-ZUsEIgDA-26" target="f0mhsGFnPGD-ZUsEIgDA-27" edge="1">
          <mxGeometry relative="1" as="geometry">
            <Array as="points">
              <mxPoint x="500" y="465" />
              <mxPoint x="500" y="575" />
            </Array>
          </mxGeometry>
        </mxCell>
        <mxCell id="f0mhsGFnPGD-ZUsEIgDA-26" value="CourseApplicationService" style="html=1;whiteSpace=wrap;fillColor=#d5e8d4;strokeColor=#82b366;fontStyle=1;fontSize=16;" parent="f0mhsGFnPGD-ZUsEIgDA-33" vertex="1">
          <mxGeometry x="250" y="440" width="210" height="50" as="geometry" />
        </mxCell>
        <mxCell id="f0mhsGFnPGD-ZUsEIgDA-27" value="«interface»&lt;br style=&quot;font-size: 16px;&quot;&gt;&lt;b style=&quot;font-size: 16px;&quot;&gt;ICourseRepositoty&lt;/b&gt;" style="html=1;whiteSpace=wrap;fillColor=#d5e8d4;strokeColor=#82b366;fontSize=16;" parent="f0mhsGFnPGD-ZUsEIgDA-33" vertex="1">
          <mxGeometry x="250" y="550" width="210" height="50" as="geometry" />
        </mxCell>
        <mxCell id="f0mhsGFnPGD-ZUsEIgDA-28" style="edgeStyle=orthogonalEdgeStyle;rounded=0;orthogonalLoop=1;jettySize=auto;html=1;entryX=0.5;entryY=1;entryDx=0;entryDy=0;endArrow=block;endFill=0;fontSize=16;" parent="f0mhsGFnPGD-ZUsEIgDA-33" source="f0mhsGFnPGD-ZUsEIgDA-29" target="f0mhsGFnPGD-ZUsEIgDA-27" edge="1">
          <mxGeometry relative="1" as="geometry" />
        </mxCell>
        <mxCell id="f0mhsGFnPGD-ZUsEIgDA-29" value="CourseRepository" style="html=1;whiteSpace=wrap;fillColor=#99FFFF;strokeColor=#6c8ebf;fontStyle=1;fontSize=16;" parent="f0mhsGFnPGD-ZUsEIgDA-33" vertex="1">
          <mxGeometry x="80" y="823" width="210" height="50" as="geometry" />
        </mxCell>
        <mxCell id="f0mhsGFnPGD-ZUsEIgDA-35" style="edgeStyle=orthogonalEdgeStyle;rounded=0;orthogonalLoop=1;jettySize=auto;html=1;entryX=0.5;entryY=0;entryDx=0;entryDy=0;fontSize=16;" parent="1" source="f0mhsGFnPGD-ZUsEIgDA-34" target="f0mhsGFnPGD-ZUsEIgDA-22" edge="1">
          <mxGeometry relative="1" as="geometry" />
        </mxCell>
        <mxCell id="f0mhsGFnPGD-ZUsEIgDA-34" value="API Gateway" style="sketch=0;points=[[0,0,0],[0.25,0,0],[0.5,0,0],[0.75,0,0],[1,0,0],[0,1,0],[0.25,1,0],[0.5,1,0],[0.75,1,0],[1,1,0],[0,0.25,0],[0,0.5,0],[0,0.75,0],[1,0.25,0],[1,0.5,0],[1,0.75,0]];outlineConnect=0;fontColor=#232F3E;fillColor=#E7157B;strokeColor=#ffffff;dashed=0;verticalLabelPosition=bottom;verticalAlign=top;align=center;html=1;fontSize=16;fontStyle=0;aspect=fixed;shape=mxgraph.aws4.resourceIcon;resIcon=mxgraph.aws4.api_gateway;" parent="1" vertex="1">
          <mxGeometry x="2316" y="-20" width="78" height="78" as="geometry" />
        </mxCell>
        <mxCell id="f0mhsGFnPGD-ZUsEIgDA-37" style="edgeStyle=orthogonalEdgeStyle;rounded=0;orthogonalLoop=1;jettySize=auto;html=1;entryX=0.5;entryY=0;entryDx=0;entryDy=0;" parent="1" source="f0mhsGFnPGD-ZUsEIgDA-36" target="f0mhsGFnPGD-ZUsEIgDA-15" edge="1">
          <mxGeometry relative="1" as="geometry" />
        </mxCell>
        <mxCell id="f0mhsGFnPGD-ZUsEIgDA-36" value="API Gateway" style="sketch=0;points=[[0,0,0],[0.25,0,0],[0.5,0,0],[0.75,0,0],[1,0,0],[0,1,0],[0.25,1,0],[0.5,1,0],[0.75,1,0],[1,1,0],[0,0.25,0],[0,0.5,0],[0,0.75,0],[1,0.25,0],[1,0.5,0],[1,0.75,0]];outlineConnect=0;fontColor=#232F3E;fillColor=#E7157B;strokeColor=#ffffff;dashed=0;verticalLabelPosition=bottom;verticalAlign=top;align=center;html=1;fontSize=16;fontStyle=0;aspect=fixed;shape=mxgraph.aws4.resourceIcon;resIcon=mxgraph.aws4.api_gateway;" parent="1" vertex="1">
          <mxGeometry x="1340" y="-40" width="78" height="78" as="geometry" />
        </mxCell>
        <mxCell id="f0mhsGFnPGD-ZUsEIgDA-41" style="edgeStyle=orthogonalEdgeStyle;rounded=0;orthogonalLoop=1;jettySize=auto;html=1;" parent="1" source="f0mhsGFnPGD-ZUsEIgDA-40" target="f0mhsGFnPGD-ZUsEIgDA-36" edge="1">
          <mxGeometry relative="1" as="geometry" />
        </mxCell>
        <mxCell id="f0mhsGFnPGD-ZUsEIgDA-40" value="Web browser" style="sketch=0;aspect=fixed;pointerEvents=1;shadow=0;dashed=0;html=1;strokeColor=none;labelPosition=center;verticalLabelPosition=bottom;verticalAlign=top;align=center;fillColor=#00188D;shape=mxgraph.azure.laptop;fontSize=16;" parent="1" vertex="1">
          <mxGeometry x="1304" y="-370" width="150" height="90" as="geometry" />
        </mxCell>
        <mxCell id="f0mhsGFnPGD-ZUsEIgDA-44" value="API Client - Code generator for RESTful API from&lt;br style=&quot;font-size: 16px;&quot;&gt;OpenAPI/Swagger" style="rounded=0;whiteSpace=wrap;html=1;fontSize=16;fillColor=#f5f5f5;strokeColor=#666666;fontColor=#333333;" parent="1" vertex="1">
          <mxGeometry x="1830" y="810" width="140" height="120" as="geometry" />
        </mxCell>
        <mxCell id="udiEMu_2V9RWAuFKlMfM-1" value="«interface»&lt;br style=&quot;font-size: 16px;&quot;&gt;&lt;b style=&quot;font-size: 16px;&quot;&gt;IRequestManagerProxy&lt;/b&gt;" style="html=1;whiteSpace=wrap;fillColor=#ffe6cc;strokeColor=#d79b00;fontSize=16;" vertex="1" parent="1">
          <mxGeometry x="945" y="710" width="210" height="50" as="geometry" />
        </mxCell>
        <mxCell id="udiEMu_2V9RWAuFKlMfM-2" value="«interface»&lt;br style=&quot;font-size: 16px;&quot;&gt;&lt;b style=&quot;font-size: 16px;&quot;&gt;IRequestManagerService&lt;/b&gt;" style="html=1;whiteSpace=wrap;fillColor=#d5e8d4;strokeColor=#82b366;fontSize=16;" vertex="1" parent="1">
          <mxGeometry x="370" y="300" width="210" height="50" as="geometry" />
        </mxCell>
        <mxCell id="udiEMu_2V9RWAuFKlMfM-4" style="edgeStyle=orthogonalEdgeStyle;rounded=0;orthogonalLoop=1;jettySize=auto;html=1;entryX=0.5;entryY=1;entryDx=0;entryDy=0;endArrow=block;endFill=0;" edge="1" parent="1" source="udiEMu_2V9RWAuFKlMfM-3" target="udiEMu_2V9RWAuFKlMfM-2">
          <mxGeometry relative="1" as="geometry" />
        </mxCell>
        <mxCell id="udiEMu_2V9RWAuFKlMfM-16" style="edgeStyle=orthogonalEdgeStyle;rounded=0;orthogonalLoop=1;jettySize=auto;html=1;entryX=1;entryY=0.5;entryDx=0;entryDy=0;" edge="1" parent="1" source="udiEMu_2V9RWAuFKlMfM-3" target="udiEMu_2V9RWAuFKlMfM-13">
          <mxGeometry relative="1" as="geometry" />
        </mxCell>
        <mxCell id="udiEMu_2V9RWAuFKlMfM-3" value="RequestManagerService" style="html=1;whiteSpace=wrap;fillColor=#d5e8d4;strokeColor=#82b366;fontStyle=1;fontSize=16;" vertex="1" parent="1">
          <mxGeometry x="370" y="445" width="210" height="50" as="geometry" />
        </mxCell>
        <mxCell id="udiEMu_2V9RWAuFKlMfM-6" style="edgeStyle=orthogonalEdgeStyle;rounded=0;orthogonalLoop=1;jettySize=auto;html=1;entryX=0.25;entryY=1;entryDx=0;entryDy=0;endArrow=block;endFill=0;" edge="1" parent="1" source="udiEMu_2V9RWAuFKlMfM-5" target="udiEMu_2V9RWAuFKlMfM-1">
          <mxGeometry relative="1" as="geometry" />
        </mxCell>
        <mxCell id="udiEMu_2V9RWAuFKlMfM-7" style="edgeStyle=orthogonalEdgeStyle;rounded=0;orthogonalLoop=1;jettySize=auto;html=1;entryX=1;entryY=0.5;entryDx=0;entryDy=0;" edge="1" parent="1" source="udiEMu_2V9RWAuFKlMfM-5" target="udiEMu_2V9RWAuFKlMfM-2">
          <mxGeometry relative="1" as="geometry">
            <Array as="points">
              <mxPoint x="730" y="858" />
              <mxPoint x="730" y="325" />
            </Array>
          </mxGeometry>
        </mxCell>
        <mxCell id="udiEMu_2V9RWAuFKlMfM-5" value="RequestMangerProxy" style="html=1;whiteSpace=wrap;fillColor=#99FFFF;strokeColor=#6c8ebf;fontStyle=1;fontSize=16;" vertex="1" parent="1">
          <mxGeometry x="800" y="833" width="210" height="50" as="geometry" />
        </mxCell>
        <mxCell id="udiEMu_2V9RWAuFKlMfM-10" value="" style="endArrow=none;dashed=1;html=1;rounded=0;entryX=0.389;entryY=0.054;entryDx=0;entryDy=0;entryPerimeter=0;exitX=0.389;exitY=0.859;exitDx=0;exitDy=0;exitPerimeter=0;" edge="1" parent="1">
          <mxGeometry width="50" height="50" relative="1" as="geometry">
            <mxPoint x="650.0000000000001" y="810.0000000000002" as="sourcePoint" />
            <mxPoint x="650.0000000000001" y="69.40000000000029" as="targetPoint" />
          </mxGeometry>
        </mxCell>
        <mxCell id="udiEMu_2V9RWAuFKlMfM-11" value="Request Manager module" style="rounded=0;whiteSpace=wrap;html=1;fontStyle=1;fontSize=20;" vertex="1" parent="1">
          <mxGeometry x="370" y="120" width="190" height="60" as="geometry" />
        </mxCell>
        <mxCell id="udiEMu_2V9RWAuFKlMfM-12" value="&lt;b style=&quot;font-size: 16px;&quot;&gt;Domain Entity&lt;/b&gt;" style="html=1;whiteSpace=wrap;fillColor=#ffe6cc;strokeColor=#d79b00;fontSize=16;" vertex="1" parent="1">
          <mxGeometry x="70" y="300" width="210" height="50" as="geometry" />
        </mxCell>
        <mxCell id="udiEMu_2V9RWAuFKlMfM-13" value="«interface»&lt;br style=&quot;font-size: 16px;&quot;&gt;&lt;b style=&quot;font-size: 16px;&quot;&gt;IRepositoty&lt;/b&gt;" style="html=1;whiteSpace=wrap;fillColor=#ffe6cc;strokeColor=#d79b00;fontSize=16;" vertex="1" parent="1">
          <mxGeometry x="70" y="395" width="210" height="50" as="geometry" />
        </mxCell>
        <mxCell id="udiEMu_2V9RWAuFKlMfM-15" style="edgeStyle=orthogonalEdgeStyle;rounded=0;orthogonalLoop=1;jettySize=auto;html=1;entryX=0.5;entryY=1;entryDx=0;entryDy=0;endArrow=block;endFill=0;" edge="1" parent="1" source="udiEMu_2V9RWAuFKlMfM-14" target="udiEMu_2V9RWAuFKlMfM-13">
          <mxGeometry relative="1" as="geometry" />
        </mxCell>
        <mxCell id="udiEMu_2V9RWAuFKlMfM-14" value="Repository" style="html=1;whiteSpace=wrap;fillColor=#99FFFF;strokeColor=#6c8ebf;fontStyle=1;fontSize=16;" vertex="1" parent="1">
          <mxGeometry x="230" y="833" width="210" height="50" as="geometry" />
        </mxCell>
      </root>
    </mxGraphModel>
  </diagram>
</mxfile>
